<svg width="302" height="151" viewBox="0 0 302 151" fill="none" xmlns="http://www.w3.org/2000/svg">
<path d="M21 17C21 7.61116 28.6112 0 38 0H59C68.3888 0 76 7.61116 76 17V134C76 143.389 68.3888 151 59 151H38C28.6112 151 21 143.389 21 134V17Z" fill="black"/>
<path d="M0 46C0 39.3726 5.37258 34 12 34H29C35.6274 34 41 39.3726 41 46V105C41 111.627 35.6274 117 29 117H12C5.37258 117 0 111.627 0 105V46Z" fill="black"/>
<path d="M222 17C222 7.61116 229.611 0 239 0H260C269.389 0 277 7.61116 277 17V134C277 143.389 269.389 151 260 151H239C229.611 151 222 143.389 222 134V17Z" fill="black"/>
<path d="M261 46C261 39.3726 266.373 34 273 34H290C296.627 34 302 39.3726 302 46V105C302 111.627 296.627 117 290 117H273C266.373 117 261 111.627 261 105V46Z" fill="black"/>
<path d="M76 59H222V91H76V59Z" fill="black"/>
<path d="M101.981 38.3965C101.981 34.3535 103.036 31.1426 105.145 28.7637C107.254 26.3848 110.243 25.1953 114.11 25.1953C116.442 25.1953 118.27 25.4941 119.594 26.0918C120.93 26.6895 122.102 27.6152 123.11 28.8691C123.719 29.6309 123.702 30.2227 123.057 30.6445L121.053 31.9453C120.467 32.332 119.84 32.1621 119.172 31.4355C118.621 30.8379 117.924 30.3398 117.08 29.9414C116.237 29.543 115.305 29.3438 114.286 29.3438C111.825 29.3438 110.073 30.123 109.03 31.6816C107.987 33.2285 107.465 35.4668 107.465 38.3965C107.465 41.3262 107.987 43.5703 109.03 45.1289C110.073 46.6758 111.825 47.4492 114.286 47.4492C115.481 47.4492 116.512 47.332 117.379 47.0977C118.246 46.8516 119.067 46.4121 119.84 45.7793V42.6328H116.026C115.147 42.6328 114.707 42.252 114.707 41.4902V39.416C114.707 38.6543 115.147 38.2734 116.026 38.2734H123.655C124.534 38.2734 124.973 38.6543 124.973 39.416V48.3457C123.332 49.5527 121.674 50.3965 119.998 50.877C118.334 51.3574 116.371 51.5977 114.11 51.5977C110.301 51.5977 107.325 50.4082 105.18 48.0293C103.047 45.6504 101.981 42.4395 101.981 38.3965Z" fill="black"/>
<path d="M137.439 27.3047C136.842 26.2969 137.117 25.793 138.266 25.793H141.342C141.951 25.793 142.49 26.1973 142.959 27.0059L146.703 33.5273C146.809 33.7031 147.119 34.2539 147.635 35.1797C148.15 36.0938 148.449 36.9844 148.531 37.8516H148.602C148.684 36.9844 148.982 36.0938 149.498 35.1797C150.014 34.2539 150.324 33.7031 150.43 33.5273L154.174 27.0059C154.643 26.1973 155.182 25.793 155.791 25.793H158.867C160.016 25.793 160.291 26.2969 159.693 27.3047L151.133 41.7715V50.0332C151.133 50.6777 150.723 51 149.902 51H147.23C146.41 51 146 50.6777 146 50.0332V41.7715L137.439 27.3047Z" fill="black"/>
<path d="M172.441 51C171.621 51 171.211 50.5605 171.211 49.6816V27.1113C171.211 26.2324 171.621 25.793 172.441 25.793H177.539C178.218 25.793 178.705 26.2617 178.998 27.1992L183.761 42.6152C183.972 43.2832 184.119 43.834 184.201 44.2676C184.283 44.6895 184.353 45.1934 184.412 45.7793H184.517C184.576 45.1934 184.646 44.6895 184.728 44.2676C184.81 43.834 184.957 43.2832 185.168 42.6152L189.931 27.1992C190.224 26.2617 190.711 25.793 191.39 25.793H196.488C197.308 25.793 197.718 26.2324 197.718 27.1113V49.6816C197.718 50.5605 197.308 51 196.488 51H193.816C192.996 51 192.586 50.5605 192.586 49.6816V35.1621C192.586 34.459 192.615 33.7559 192.673 33.0527H192.55L187.47 49.5762C187.177 50.5254 186.673 51 185.959 51H182.97C182.255 51 181.752 50.5254 181.459 49.5762L176.379 33.0527H176.255C176.314 33.7559 176.343 34.459 176.343 35.1621V49.6816C176.343 50.5605 175.933 51 175.113 51H172.441Z" fill="black"/>
<path d="M104.259 106.293C103.38 106.293 102.941 105.912 102.941 105.15V102.936C102.941 102.174 103.38 101.793 104.259 101.793H122.329C123.208 101.793 123.648 102.174 123.648 102.936V105.15C123.648 105.912 123.208 106.293 122.329 106.293H115.861V126.033C115.861 126.678 115.568 127 114.982 127H111.607C111.021 127 110.728 126.678 110.728 126.033V106.293H104.259Z" fill="black"/>
<path d="M133.393 127C132.573 127 132.163 126.561 132.163 125.682V103.111C132.163 102.232 132.573 101.793 133.393 101.793H136.065C136.885 101.793 137.295 102.232 137.295 103.111V111.707H146.752V103.111C146.752 102.232 147.163 101.793 147.983 101.793H150.655C151.475 101.793 151.885 102.232 151.885 103.111V125.682C151.885 126.561 151.475 127 150.655 127H147.983C147.163 127 146.752 126.561 146.752 125.682V116.066H137.295V125.682C137.295 126.561 136.885 127 136.065 127H133.393Z" fill="black"/>
<path d="M163.845 127C163.025 127 162.615 126.561 162.615 125.682V103.111C162.615 102.232 163.025 101.793 163.845 101.793H166.517C167.337 101.793 167.748 102.232 167.748 103.111V125.682C167.748 126.561 167.337 127 166.517 127H163.845Z" fill="black"/>
<path d="M178.776 125.119C178.05 124.568 177.874 124.012 178.249 123.449L179.602 121.41C180.048 120.742 180.698 120.707 181.554 121.305C182.21 121.762 183.065 122.236 184.12 122.729C185.186 123.209 186.305 123.449 187.477 123.449C188.298 123.449 189.089 123.355 189.85 123.168C190.612 122.98 191.192 122.617 191.591 122.078C191.989 121.539 192.188 120.9 192.188 120.162C192.188 119.635 192.1 119.172 191.925 118.773C191.749 118.375 191.462 118.047 191.063 117.789C190.665 117.531 190.255 117.314 189.833 117.139C189.095 116.834 188.163 116.535 187.038 116.242C185.925 115.938 184.823 115.574 183.733 115.152C182.761 114.777 181.87 114.262 181.061 113.605C180.253 112.949 179.626 112.211 179.18 111.391C178.735 110.57 178.512 109.475 178.512 108.104C178.512 106.475 179.04 105.08 180.095 103.92C181.149 102.76 182.362 102.016 183.733 101.688C185.104 101.359 186.487 101.195 187.882 101.195C189.264 101.195 190.688 101.406 192.153 101.828C193.63 102.25 194.743 102.777 195.493 103.41C196.231 104.031 196.413 104.594 196.038 105.098L194.614 107.014C194.134 107.67 193.489 107.723 192.68 107.172C192.165 106.82 191.456 106.428 190.554 105.994C189.663 105.561 188.731 105.344 187.759 105.344C187.067 105.344 186.429 105.402 185.843 105.52C185.268 105.637 184.759 105.918 184.313 106.363C183.868 106.809 183.645 107.359 183.645 108.016C183.645 108.648 183.809 109.164 184.137 109.562C184.466 109.949 184.829 110.242 185.227 110.441C185.626 110.629 186.03 110.787 186.44 110.916C187.706 111.326 188.837 111.689 189.833 112.006C190.829 112.311 191.749 112.65 192.593 113.025C193.764 113.553 194.661 114.08 195.282 114.607C195.903 115.135 196.413 115.855 196.811 116.77C197.221 117.684 197.427 118.773 197.427 120.039C197.427 121.914 196.829 123.467 195.634 124.697C194.438 125.916 193.108 126.701 191.643 127.053C190.19 127.416 188.772 127.598 187.389 127.598C185.35 127.598 183.692 127.398 182.415 127C181.137 126.613 179.925 125.986 178.776 125.119Z" fill="black"/>
</svg>
